<mxfile host="65bd71144e">
    <diagram id="xa_UiN5Jp0F3U8VsHzbg" name="4a">
        <mxGraphModel dx="760" dy="358" grid="1" gridSize="10" guides="1" tooltips="1" connect="1" arrows="1" fold="1" page="1" pageScale="1" pageWidth="827" pageHeight="1169" math="0" shadow="0">
            <root>
                <mxCell id="0"/>
                <mxCell id="1" parent="0"/>
                <mxCell id="6" value="B" style="swimlane;fontStyle=1;align=center;verticalAlign=top;childLayout=stackLayout;horizontal=1;startSize=26;horizontalStack=0;resizeParent=1;resizeParentMax=0;resizeLast=0;collapsible=1;marginBottom=0;" vertex="1" parent="1">
                    <mxGeometry x="480" y="200" width="160" height="86" as="geometry"/>
                </mxCell>
                <mxCell id="7" value="+ field: type" style="text;strokeColor=none;fillColor=none;align=left;verticalAlign=top;spacingLeft=4;spacingRight=4;overflow=hidden;rotatable=0;points=[[0,0.5],[1,0.5]];portConstraint=eastwest;" vertex="1" parent="6">
                    <mxGeometry y="26" width="160" height="26" as="geometry"/>
                </mxCell>
                <mxCell id="8" value="" style="line;strokeWidth=1;fillColor=none;align=left;verticalAlign=middle;spacingTop=-1;spacingLeft=3;spacingRight=3;rotatable=0;labelPosition=right;points=[];portConstraint=eastwest;" vertex="1" parent="6">
                    <mxGeometry y="52" width="160" height="8" as="geometry"/>
                </mxCell>
                <mxCell id="9" value="+ method(type): type" style="text;strokeColor=none;fillColor=none;align=left;verticalAlign=top;spacingLeft=4;spacingRight=4;overflow=hidden;rotatable=0;points=[[0,0.5],[1,0.5]];portConstraint=eastwest;" vertex="1" parent="6">
                    <mxGeometry y="60" width="160" height="26" as="geometry"/>
                </mxCell>
                <mxCell id="10" value="A" style="swimlane;fontStyle=1;align=center;verticalAlign=top;childLayout=stackLayout;horizontal=1;startSize=26;horizontalStack=0;resizeParent=1;resizeParentMax=0;resizeLast=0;collapsible=1;marginBottom=0;" vertex="1" parent="1">
                    <mxGeometry x="120" y="200" width="160" height="86" as="geometry"/>
                </mxCell>
                <mxCell id="11" value="+ field: type" style="text;strokeColor=none;fillColor=none;align=left;verticalAlign=top;spacingLeft=4;spacingRight=4;overflow=hidden;rotatable=0;points=[[0,0.5],[1,0.5]];portConstraint=eastwest;" vertex="1" parent="10">
                    <mxGeometry y="26" width="160" height="26" as="geometry"/>
                </mxCell>
                <mxCell id="12" value="" style="line;strokeWidth=1;fillColor=none;align=left;verticalAlign=middle;spacingTop=-1;spacingLeft=3;spacingRight=3;rotatable=0;labelPosition=right;points=[];portConstraint=eastwest;" vertex="1" parent="10">
                    <mxGeometry y="52" width="160" height="8" as="geometry"/>
                </mxCell>
                <mxCell id="13" value="+ method(type): type" style="text;strokeColor=none;fillColor=none;align=left;verticalAlign=top;spacingLeft=4;spacingRight=4;overflow=hidden;rotatable=0;points=[[0,0.5],[1,0.5]];portConstraint=eastwest;" vertex="1" parent="10">
                    <mxGeometry y="60" width="160" height="26" as="geometry"/>
                </mxCell>
                <mxCell id="14" value="" style="endArrow=none;html=1;exitX=1;exitY=0.5;exitDx=0;exitDy=0;entryX=0;entryY=0.5;entryDx=0;entryDy=0;" edge="1" parent="1" source="11" target="7">
                    <mxGeometry width="50" height="50" relative="1" as="geometry">
                        <mxPoint x="670" y="350" as="sourcePoint"/>
                        <mxPoint x="720" y="300" as="targetPoint"/>
                    </mxGeometry>
                </mxCell>
                <mxCell id="15" value="1" style="text;html=1;strokeColor=none;fillColor=none;align=center;verticalAlign=middle;whiteSpace=wrap;rounded=0;" vertex="1" parent="1">
                    <mxGeometry x="280" y="210" width="60" height="30" as="geometry"/>
                </mxCell>
                <mxCell id="17" value="7" style="text;html=1;strokeColor=none;fillColor=none;align=center;verticalAlign=middle;whiteSpace=wrap;rounded=0;" vertex="1" parent="1">
                    <mxGeometry x="420" y="210" width="60" height="30" as="geometry"/>
                </mxCell>
                <mxCell id="18" value="B" style="swimlane;fontStyle=1;align=center;verticalAlign=top;childLayout=stackLayout;horizontal=1;startSize=26;horizontalStack=0;resizeParent=1;resizeParentMax=0;resizeLast=0;collapsible=1;marginBottom=0;" vertex="1" parent="1">
                    <mxGeometry x="120" y="320" width="160" height="86" as="geometry"/>
                </mxCell>
                <mxCell id="19" value="+ field: type" style="text;strokeColor=none;fillColor=none;align=left;verticalAlign=top;spacingLeft=4;spacingRight=4;overflow=hidden;rotatable=0;points=[[0,0.5],[1,0.5]];portConstraint=eastwest;" vertex="1" parent="18">
                    <mxGeometry y="26" width="160" height="26" as="geometry"/>
                </mxCell>
                <mxCell id="20" value="" style="line;strokeWidth=1;fillColor=none;align=left;verticalAlign=middle;spacingTop=-1;spacingLeft=3;spacingRight=3;rotatable=0;labelPosition=right;points=[];portConstraint=eastwest;" vertex="1" parent="18">
                    <mxGeometry y="52" width="160" height="8" as="geometry"/>
                </mxCell>
                <mxCell id="21" value="+ method(type): type" style="text;strokeColor=none;fillColor=none;align=left;verticalAlign=top;spacingLeft=4;spacingRight=4;overflow=hidden;rotatable=0;points=[[0,0.5],[1,0.5]];portConstraint=eastwest;" vertex="1" parent="18">
                    <mxGeometry y="60" width="160" height="26" as="geometry"/>
                </mxCell>
                <mxCell id="22" value="" style="endArrow=none;html=1;exitX=1;exitY=0.5;exitDx=0;exitDy=0;entryX=0;entryY=0.5;entryDx=0;entryDy=0;" edge="1" source="19" target="24" parent="1">
                    <mxGeometry width="50" height="50" relative="1" as="geometry">
                        <mxPoint x="670" y="470" as="sourcePoint"/>
                        <mxPoint x="720" y="420" as="targetPoint"/>
                    </mxGeometry>
                </mxCell>
                <mxCell id="23" value="A" style="swimlane;fontStyle=1;align=center;verticalAlign=top;childLayout=stackLayout;horizontal=1;startSize=26;horizontalStack=0;resizeParent=1;resizeParentMax=0;resizeLast=0;collapsible=1;marginBottom=0;" vertex="1" parent="1">
                    <mxGeometry x="480" y="320" width="160" height="86" as="geometry"/>
                </mxCell>
                <mxCell id="24" value="+ field: type" style="text;strokeColor=none;fillColor=none;align=left;verticalAlign=top;spacingLeft=4;spacingRight=4;overflow=hidden;rotatable=0;points=[[0,0.5],[1,0.5]];portConstraint=eastwest;" vertex="1" parent="23">
                    <mxGeometry y="26" width="160" height="26" as="geometry"/>
                </mxCell>
                <mxCell id="25" value="" style="line;strokeWidth=1;fillColor=none;align=left;verticalAlign=middle;spacingTop=-1;spacingLeft=3;spacingRight=3;rotatable=0;labelPosition=right;points=[];portConstraint=eastwest;" vertex="1" parent="23">
                    <mxGeometry y="52" width="160" height="8" as="geometry"/>
                </mxCell>
                <mxCell id="26" value="+ method(type): type" style="text;strokeColor=none;fillColor=none;align=left;verticalAlign=top;spacingLeft=4;spacingRight=4;overflow=hidden;rotatable=0;points=[[0,0.5],[1,0.5]];portConstraint=eastwest;" vertex="1" parent="23">
                    <mxGeometry y="60" width="160" height="26" as="geometry"/>
                </mxCell>
                <mxCell id="27" value="1" style="text;html=1;strokeColor=none;fillColor=none;align=center;verticalAlign=middle;whiteSpace=wrap;rounded=0;" vertex="1" parent="1">
                    <mxGeometry x="280" y="330" width="60" height="30" as="geometry"/>
                </mxCell>
                <mxCell id="28" value="8 .. *" style="text;html=1;strokeColor=none;fillColor=none;align=center;verticalAlign=middle;whiteSpace=wrap;rounded=0;" vertex="1" parent="1">
                    <mxGeometry x="420" y="330" width="60" height="30" as="geometry"/>
                </mxCell>
            </root>
        </mxGraphModel>
    </diagram>
    <diagram name="4b" id="KdROqD3aVk4PxE6drzve">
        <mxGraphModel dx="1330" dy="627" grid="1" gridSize="10" guides="1" tooltips="1" connect="1" arrows="1" fold="1" page="1" pageScale="1" pageWidth="827" pageHeight="1169" math="0" shadow="0">
            <root>
                <mxCell id="anK9UPCzcJfsnqpT8ee4-0"/>
                <mxCell id="anK9UPCzcJfsnqpT8ee4-1" parent="anK9UPCzcJfsnqpT8ee4-0"/>
                <mxCell id="anK9UPCzcJfsnqpT8ee4-2" value="D" style="swimlane;fontStyle=1;align=center;verticalAlign=top;childLayout=stackLayout;horizontal=1;startSize=26;horizontalStack=0;resizeParent=1;resizeParentMax=0;resizeLast=0;collapsible=1;marginBottom=0;" vertex="1" parent="anK9UPCzcJfsnqpT8ee4-1">
                    <mxGeometry x="480" y="160" width="160" height="86" as="geometry"/>
                </mxCell>
                <mxCell id="anK9UPCzcJfsnqpT8ee4-3" value="+ field: type" style="text;strokeColor=none;fillColor=none;align=left;verticalAlign=top;spacingLeft=4;spacingRight=4;overflow=hidden;rotatable=0;points=[[0,0.5],[1,0.5]];portConstraint=eastwest;" vertex="1" parent="anK9UPCzcJfsnqpT8ee4-2">
                    <mxGeometry y="26" width="160" height="26" as="geometry"/>
                </mxCell>
                <mxCell id="anK9UPCzcJfsnqpT8ee4-4" value="" style="line;strokeWidth=1;fillColor=none;align=left;verticalAlign=middle;spacingTop=-1;spacingLeft=3;spacingRight=3;rotatable=0;labelPosition=right;points=[];portConstraint=eastwest;" vertex="1" parent="anK9UPCzcJfsnqpT8ee4-2">
                    <mxGeometry y="52" width="160" height="8" as="geometry"/>
                </mxCell>
                <mxCell id="anK9UPCzcJfsnqpT8ee4-5" value="+ method(type): type" style="text;strokeColor=none;fillColor=none;align=left;verticalAlign=top;spacingLeft=4;spacingRight=4;overflow=hidden;rotatable=0;points=[[0,0.5],[1,0.5]];portConstraint=eastwest;" vertex="1" parent="anK9UPCzcJfsnqpT8ee4-2">
                    <mxGeometry y="60" width="160" height="26" as="geometry"/>
                </mxCell>
                <mxCell id="anK9UPCzcJfsnqpT8ee4-6" value="C" style="swimlane;fontStyle=1;align=center;verticalAlign=top;childLayout=stackLayout;horizontal=1;startSize=26;horizontalStack=0;resizeParent=1;resizeParentMax=0;resizeLast=0;collapsible=1;marginBottom=0;" vertex="1" parent="anK9UPCzcJfsnqpT8ee4-1">
                    <mxGeometry x="80" y="164" width="160" height="86" as="geometry"/>
                </mxCell>
                <mxCell id="anK9UPCzcJfsnqpT8ee4-7" value="+ field: type" style="text;strokeColor=none;fillColor=none;align=left;verticalAlign=top;spacingLeft=4;spacingRight=4;overflow=hidden;rotatable=0;points=[[0,0.5],[1,0.5]];portConstraint=eastwest;" vertex="1" parent="anK9UPCzcJfsnqpT8ee4-6">
                    <mxGeometry y="26" width="160" height="26" as="geometry"/>
                </mxCell>
                <mxCell id="anK9UPCzcJfsnqpT8ee4-8" value="" style="line;strokeWidth=1;fillColor=none;align=left;verticalAlign=middle;spacingTop=-1;spacingLeft=3;spacingRight=3;rotatable=0;labelPosition=right;points=[];portConstraint=eastwest;" vertex="1" parent="anK9UPCzcJfsnqpT8ee4-6">
                    <mxGeometry y="52" width="160" height="8" as="geometry"/>
                </mxCell>
                <mxCell id="anK9UPCzcJfsnqpT8ee4-9" value="+ method(type): type" style="text;strokeColor=none;fillColor=none;align=left;verticalAlign=top;spacingLeft=4;spacingRight=4;overflow=hidden;rotatable=0;points=[[0,0.5],[1,0.5]];portConstraint=eastwest;" vertex="1" parent="anK9UPCzcJfsnqpT8ee4-6">
                    <mxGeometry y="60" width="160" height="26" as="geometry"/>
                </mxCell>
                <mxCell id="anK9UPCzcJfsnqpT8ee4-11" value="1" style="text;html=1;strokeColor=none;fillColor=none;align=center;verticalAlign=middle;whiteSpace=wrap;rounded=0;" vertex="1" parent="anK9UPCzcJfsnqpT8ee4-1">
                    <mxGeometry x="240" y="150" width="50" height="30" as="geometry"/>
                </mxCell>
                <mxCell id="anK9UPCzcJfsnqpT8ee4-12" value="3..4" style="text;html=1;strokeColor=none;fillColor=none;align=center;verticalAlign=middle;whiteSpace=wrap;rounded=0;" vertex="1" parent="anK9UPCzcJfsnqpT8ee4-1">
                    <mxGeometry x="420" y="150" width="60" height="30" as="geometry"/>
                </mxCell>
                <mxCell id="anK9UPCzcJfsnqpT8ee4-23" value="0..1" style="text;html=1;strokeColor=none;fillColor=none;align=center;verticalAlign=middle;whiteSpace=wrap;rounded=0;" vertex="1" parent="anK9UPCzcJfsnqpT8ee4-1">
                    <mxGeometry x="250" y="230" width="60" height="30" as="geometry"/>
                </mxCell>
                <mxCell id="anK9UPCzcJfsnqpT8ee4-24" value="" style="endArrow=classic;html=1;exitX=1;exitY=0.25;exitDx=0;exitDy=0;entryX=0;entryY=-0.038;entryDx=0;entryDy=0;entryPerimeter=0;" edge="1" parent="anK9UPCzcJfsnqpT8ee4-1" source="anK9UPCzcJfsnqpT8ee4-6" target="anK9UPCzcJfsnqpT8ee4-3">
                    <mxGeometry width="50" height="50" relative="1" as="geometry">
                        <mxPoint x="390" y="350" as="sourcePoint"/>
                        <mxPoint x="440" y="300" as="targetPoint"/>
                    </mxGeometry>
                </mxCell>
                <mxCell id="anK9UPCzcJfsnqpT8ee4-25" value="" style="endArrow=classic;html=1;entryX=1.019;entryY=0.077;entryDx=0;entryDy=0;exitX=-0.006;exitY=0.231;exitDx=0;exitDy=0;startArrow=none;entryPerimeter=0;exitPerimeter=0;" edge="1" parent="anK9UPCzcJfsnqpT8ee4-1" source="anK9UPCzcJfsnqpT8ee4-5" target="anK9UPCzcJfsnqpT8ee4-9">
                    <mxGeometry width="50" height="50" relative="1" as="geometry">
                        <mxPoint x="390" y="350" as="sourcePoint"/>
                        <mxPoint x="440" y="300" as="targetPoint"/>
                    </mxGeometry>
                </mxCell>
                <mxCell id="anK9UPCzcJfsnqpT8ee4-22" value="1" style="text;html=1;strokeColor=none;fillColor=none;align=center;verticalAlign=middle;whiteSpace=wrap;rounded=0;" vertex="1" parent="anK9UPCzcJfsnqpT8ee4-1">
                    <mxGeometry x="420" y="230" width="60" height="30" as="geometry"/>
                </mxCell>
            </root>
        </mxGraphModel>
    </diagram>
    <diagram id="S3pAVTzHdDZToB31d125" name="4c">
        <mxGraphModel dx="1330" dy="627" grid="1" gridSize="10" guides="1" tooltips="1" connect="1" arrows="1" fold="1" page="1" pageScale="1" pageWidth="827" pageHeight="1169" math="0" shadow="0">
            <root>
                <mxCell id="0"/>
                <mxCell id="1" parent="0"/>
                <mxCell id="2xrbAyJoei8LxySAUnen-1" value="K" style="swimlane;fontStyle=1;align=center;verticalAlign=top;childLayout=stackLayout;horizontal=1;startSize=26;horizontalStack=0;resizeParent=1;resizeParentMax=0;resizeLast=0;collapsible=1;marginBottom=0;" vertex="1" parent="1">
                    <mxGeometry x="260" y="40" width="160" height="86" as="geometry"/>
                </mxCell>
                <mxCell id="2xrbAyJoei8LxySAUnen-2" value="+ field: type" style="text;strokeColor=none;fillColor=none;align=left;verticalAlign=top;spacingLeft=4;spacingRight=4;overflow=hidden;rotatable=0;points=[[0,0.5],[1,0.5]];portConstraint=eastwest;" vertex="1" parent="2xrbAyJoei8LxySAUnen-1">
                    <mxGeometry y="26" width="160" height="26" as="geometry"/>
                </mxCell>
                <mxCell id="2xrbAyJoei8LxySAUnen-3" value="" style="line;strokeWidth=1;fillColor=none;align=left;verticalAlign=middle;spacingTop=-1;spacingLeft=3;spacingRight=3;rotatable=0;labelPosition=right;points=[];portConstraint=eastwest;" vertex="1" parent="2xrbAyJoei8LxySAUnen-1">
                    <mxGeometry y="52" width="160" height="8" as="geometry"/>
                </mxCell>
                <mxCell id="2xrbAyJoei8LxySAUnen-4" value="+ method(type): type" style="text;strokeColor=none;fillColor=none;align=left;verticalAlign=top;spacingLeft=4;spacingRight=4;overflow=hidden;rotatable=0;points=[[0,0.5],[1,0.5]];portConstraint=eastwest;" vertex="1" parent="2xrbAyJoei8LxySAUnen-1">
                    <mxGeometry y="60" width="160" height="26" as="geometry"/>
                </mxCell>
                <mxCell id="2xrbAyJoei8LxySAUnen-5" value="L" style="swimlane;fontStyle=1;align=center;verticalAlign=top;childLayout=stackLayout;horizontal=1;startSize=26;horizontalStack=0;resizeParent=1;resizeParentMax=0;resizeLast=0;collapsible=1;marginBottom=0;" vertex="1" parent="1">
                    <mxGeometry x="110" y="200" width="160" height="86" as="geometry"/>
                </mxCell>
                <mxCell id="2xrbAyJoei8LxySAUnen-6" value="+ field: type" style="text;strokeColor=none;fillColor=none;align=left;verticalAlign=top;spacingLeft=4;spacingRight=4;overflow=hidden;rotatable=0;points=[[0,0.5],[1,0.5]];portConstraint=eastwest;" vertex="1" parent="2xrbAyJoei8LxySAUnen-5">
                    <mxGeometry y="26" width="160" height="26" as="geometry"/>
                </mxCell>
                <mxCell id="2xrbAyJoei8LxySAUnen-7" value="" style="line;strokeWidth=1;fillColor=none;align=left;verticalAlign=middle;spacingTop=-1;spacingLeft=3;spacingRight=3;rotatable=0;labelPosition=right;points=[];portConstraint=eastwest;" vertex="1" parent="2xrbAyJoei8LxySAUnen-5">
                    <mxGeometry y="52" width="160" height="8" as="geometry"/>
                </mxCell>
                <mxCell id="2xrbAyJoei8LxySAUnen-8" value="+ method(type): type" style="text;strokeColor=none;fillColor=none;align=left;verticalAlign=top;spacingLeft=4;spacingRight=4;overflow=hidden;rotatable=0;points=[[0,0.5],[1,0.5]];portConstraint=eastwest;" vertex="1" parent="2xrbAyJoei8LxySAUnen-5">
                    <mxGeometry y="60" width="160" height="26" as="geometry"/>
                </mxCell>
                <mxCell id="2xrbAyJoei8LxySAUnen-9" value="X" style="swimlane;fontStyle=1;align=center;verticalAlign=top;childLayout=stackLayout;horizontal=1;startSize=26;horizontalStack=0;resizeParent=1;resizeParentMax=0;resizeLast=0;collapsible=1;marginBottom=0;" vertex="1" parent="1">
                    <mxGeometry x="350" y="400" width="160" height="86" as="geometry"/>
                </mxCell>
                <mxCell id="2xrbAyJoei8LxySAUnen-10" value="+ field: type" style="text;strokeColor=none;fillColor=none;align=left;verticalAlign=top;spacingLeft=4;spacingRight=4;overflow=hidden;rotatable=0;points=[[0,0.5],[1,0.5]];portConstraint=eastwest;" vertex="1" parent="2xrbAyJoei8LxySAUnen-9">
                    <mxGeometry y="26" width="160" height="26" as="geometry"/>
                </mxCell>
                <mxCell id="2xrbAyJoei8LxySAUnen-11" value="" style="line;strokeWidth=1;fillColor=none;align=left;verticalAlign=middle;spacingTop=-1;spacingLeft=3;spacingRight=3;rotatable=0;labelPosition=right;points=[];portConstraint=eastwest;" vertex="1" parent="2xrbAyJoei8LxySAUnen-9">
                    <mxGeometry y="52" width="160" height="8" as="geometry"/>
                </mxCell>
                <mxCell id="2xrbAyJoei8LxySAUnen-12" value="+ method(type): type" style="text;strokeColor=none;fillColor=none;align=left;verticalAlign=top;spacingLeft=4;spacingRight=4;overflow=hidden;rotatable=0;points=[[0,0.5],[1,0.5]];portConstraint=eastwest;" vertex="1" parent="2xrbAyJoei8LxySAUnen-9">
                    <mxGeometry y="60" width="160" height="26" as="geometry"/>
                </mxCell>
                <mxCell id="2xrbAyJoei8LxySAUnen-17" value="M" style="swimlane;fontStyle=1;align=center;verticalAlign=top;childLayout=stackLayout;horizontal=1;startSize=26;horizontalStack=0;resizeParent=1;resizeParentMax=0;resizeLast=0;collapsible=1;marginBottom=0;" vertex="1" parent="1">
                    <mxGeometry x="450" y="200" width="160" height="86" as="geometry"/>
                </mxCell>
                <mxCell id="2xrbAyJoei8LxySAUnen-18" value="+ field: type" style="text;strokeColor=none;fillColor=none;align=left;verticalAlign=top;spacingLeft=4;spacingRight=4;overflow=hidden;rotatable=0;points=[[0,0.5],[1,0.5]];portConstraint=eastwest;" vertex="1" parent="2xrbAyJoei8LxySAUnen-17">
                    <mxGeometry y="26" width="160" height="26" as="geometry"/>
                </mxCell>
                <mxCell id="2xrbAyJoei8LxySAUnen-19" value="" style="line;strokeWidth=1;fillColor=none;align=left;verticalAlign=middle;spacingTop=-1;spacingLeft=3;spacingRight=3;rotatable=0;labelPosition=right;points=[];portConstraint=eastwest;" vertex="1" parent="2xrbAyJoei8LxySAUnen-17">
                    <mxGeometry y="52" width="160" height="8" as="geometry"/>
                </mxCell>
                <mxCell id="2xrbAyJoei8LxySAUnen-20" value="+ method(type): type" style="text;strokeColor=none;fillColor=none;align=left;verticalAlign=top;spacingLeft=4;spacingRight=4;overflow=hidden;rotatable=0;points=[[0,0.5],[1,0.5]];portConstraint=eastwest;" vertex="1" parent="2xrbAyJoei8LxySAUnen-17">
                    <mxGeometry y="60" width="160" height="26" as="geometry"/>
                </mxCell>
                <mxCell id="2xrbAyJoei8LxySAUnen-21" value="Y" style="swimlane;fontStyle=1;align=center;verticalAlign=top;childLayout=stackLayout;horizontal=1;startSize=26;horizontalStack=0;resizeParent=1;resizeParentMax=0;resizeLast=0;collapsible=1;marginBottom=0;" vertex="1" parent="1">
                    <mxGeometry x="560" y="400" width="160" height="86" as="geometry"/>
                </mxCell>
                <mxCell id="2xrbAyJoei8LxySAUnen-22" value="+ field: type" style="text;strokeColor=none;fillColor=none;align=left;verticalAlign=top;spacingLeft=4;spacingRight=4;overflow=hidden;rotatable=0;points=[[0,0.5],[1,0.5]];portConstraint=eastwest;" vertex="1" parent="2xrbAyJoei8LxySAUnen-21">
                    <mxGeometry y="26" width="160" height="26" as="geometry"/>
                </mxCell>
                <mxCell id="2xrbAyJoei8LxySAUnen-23" value="" style="line;strokeWidth=1;fillColor=none;align=left;verticalAlign=middle;spacingTop=-1;spacingLeft=3;spacingRight=3;rotatable=0;labelPosition=right;points=[];portConstraint=eastwest;" vertex="1" parent="2xrbAyJoei8LxySAUnen-21">
                    <mxGeometry y="52" width="160" height="8" as="geometry"/>
                </mxCell>
                <mxCell id="2xrbAyJoei8LxySAUnen-24" value="+ method(type): type" style="text;strokeColor=none;fillColor=none;align=left;verticalAlign=top;spacingLeft=4;spacingRight=4;overflow=hidden;rotatable=0;points=[[0,0.5],[1,0.5]];portConstraint=eastwest;" vertex="1" parent="2xrbAyJoei8LxySAUnen-21">
                    <mxGeometry y="60" width="160" height="26" as="geometry"/>
                </mxCell>
                <mxCell id="2xrbAyJoei8LxySAUnen-26" value="1" style="endArrow=open;html=1;endSize=12;startArrow=diamondThin;startSize=14;startFill=1;edgeStyle=orthogonalEdgeStyle;align=left;verticalAlign=bottom;exitX=0.469;exitY=1;exitDx=0;exitDy=0;exitPerimeter=0;entryX=0.4;entryY=0;entryDx=0;entryDy=0;entryPerimeter=0;" edge="1" parent="1" source="2xrbAyJoei8LxySAUnen-4" target="2xrbAyJoei8LxySAUnen-5">
                    <mxGeometry x="-1" y="3" relative="1" as="geometry">
                        <mxPoint x="330" y="320" as="sourcePoint"/>
                        <mxPoint x="395" y="210" as="targetPoint"/>
                    </mxGeometry>
                </mxCell>
                <mxCell id="2xrbAyJoei8LxySAUnen-28" value="1" style="endArrow=open;html=1;endSize=12;startArrow=diamondThin;startSize=14;startFill=0;edgeStyle=orthogonalEdgeStyle;align=left;verticalAlign=bottom;entryX=0.4;entryY=-0.058;entryDx=0;entryDy=0;entryPerimeter=0;" edge="1" parent="1" source="2xrbAyJoei8LxySAUnen-2" target="2xrbAyJoei8LxySAUnen-17">
                    <mxGeometry x="-1" y="3" relative="1" as="geometry">
                        <mxPoint x="330" y="320" as="sourcePoint"/>
                        <mxPoint x="490" y="320" as="targetPoint"/>
                    </mxGeometry>
                </mxCell>
                <mxCell id="2xrbAyJoei8LxySAUnen-29" value="Extends" style="endArrow=block;endSize=16;endFill=0;html=1;entryX=0.325;entryY=1.077;entryDx=0;entryDy=0;entryPerimeter=0;exitX=0.406;exitY=-0.023;exitDx=0;exitDy=0;exitPerimeter=0;" edge="1" parent="1" source="2xrbAyJoei8LxySAUnen-9" target="2xrbAyJoei8LxySAUnen-20">
                    <mxGeometry width="160" relative="1" as="geometry">
                        <mxPoint x="330" y="320" as="sourcePoint"/>
                        <mxPoint x="490" y="320" as="targetPoint"/>
                    </mxGeometry>
                </mxCell>
                <mxCell id="2xrbAyJoei8LxySAUnen-30" value="Extends" style="endArrow=block;endSize=16;endFill=0;html=1;exitX=0.438;exitY=0;exitDx=0;exitDy=0;exitPerimeter=0;" edge="1" parent="1" source="2xrbAyJoei8LxySAUnen-21" target="2xrbAyJoei8LxySAUnen-20">
                    <mxGeometry width="160" relative="1" as="geometry">
                        <mxPoint x="504.96000000000004" y="418.02199999999993" as="sourcePoint"/>
                        <mxPoint x="632" y="308.00199999999995" as="targetPoint"/>
                    </mxGeometry>
                </mxCell>
            </root>
        </mxGraphModel>
    </diagram>
    <diagram id="rXgjg48a-rPdkwVd83CE" name="5">
        <mxGraphModel dx="1330" dy="627" grid="1" gridSize="10" guides="1" tooltips="1" connect="1" arrows="1" fold="1" page="1" pageScale="1" pageWidth="827" pageHeight="1169" math="0" shadow="0">
            <root>
                <mxCell id="LEjSN3UGU4nLk3BpibLZ-0"/>
                <mxCell id="LEjSN3UGU4nLk3BpibLZ-1" parent="LEjSN3UGU4nLk3BpibLZ-0"/>
                <mxCell id="LEjSN3UGU4nLk3BpibLZ-2" value="&lt;p style=&quot;margin: 0px ; margin-top: 4px ; text-align: center ; text-decoration: underline&quot;&gt;&lt;b&gt;Müller:Lehrer&lt;/b&gt;&lt;/p&gt;&lt;hr&gt;&lt;p style=&quot;margin: 0px ; margin-left: 8px&quot;&gt;name= &quot;Müller&quot;&lt;br&gt;field2 = value2&lt;br&gt;field3 = value3&lt;/p&gt;" style="verticalAlign=top;align=left;overflow=fill;fontSize=12;fontFamily=Helvetica;html=1;" vertex="1" parent="LEjSN3UGU4nLk3BpibLZ-1">
                    <mxGeometry x="90" y="200" width="160" height="90" as="geometry"/>
                </mxCell>
                <mxCell id="LEjSN3UGU4nLk3BpibLZ-3" value="&lt;p style=&quot;margin: 0px ; margin-top: 4px ; text-align: center ; text-decoration: underline&quot;&gt;&lt;b&gt;Mathe:Fach&lt;/b&gt;&lt;/p&gt;&lt;hr&gt;&lt;p style=&quot;margin: 0px ; margin-left: 8px&quot;&gt;name= &quot;Mathe&quot;&lt;br&gt;field2 = value2&lt;br&gt;field3 = value3&lt;/p&gt;" style="verticalAlign=top;align=left;overflow=fill;fontSize=12;fontFamily=Helvetica;html=1;" vertex="1" parent="LEjSN3UGU4nLk3BpibLZ-1">
                    <mxGeometry x="320" y="80" width="160" height="90" as="geometry"/>
                </mxCell>
                <mxCell id="LEjSN3UGU4nLk3BpibLZ-4" value="&lt;p style=&quot;margin: 0px ; margin-top: 4px ; text-align: center ; text-decoration: underline&quot;&gt;&lt;b&gt;s1:Schüler&lt;/b&gt;&lt;/p&gt;&lt;hr&gt;&lt;p style=&quot;margin: 0px ; margin-left: 8px&quot;&gt;field1 = value1&lt;br&gt;field2 = value2&lt;br&gt;field3 = value3&lt;/p&gt;" style="verticalAlign=top;align=left;overflow=fill;fontSize=12;fontFamily=Helvetica;html=1;" vertex="1" parent="LEjSN3UGU4nLk3BpibLZ-1">
                    <mxGeometry x="600" y="80" width="160" height="90" as="geometry"/>
                </mxCell>
                <mxCell id="LEjSN3UGU4nLk3BpibLZ-5" value="&lt;p style=&quot;margin: 0px ; margin-top: 4px ; text-align: center ; text-decoration: underline&quot;&gt;&lt;b&gt;IT:Fach&lt;/b&gt;&lt;/p&gt;&lt;hr&gt;&lt;p style=&quot;margin: 0px ; margin-left: 8px&quot;&gt;name= &quot;Mathe&quot;&lt;br&gt;field2 = value2&lt;br&gt;field3 = value3&lt;/p&gt;" style="verticalAlign=top;align=left;overflow=fill;fontSize=12;fontFamily=Helvetica;html=1;" vertex="1" parent="LEjSN3UGU4nLk3BpibLZ-1">
                    <mxGeometry x="320" y="320" width="160" height="90" as="geometry"/>
                </mxCell>
                <mxCell id="Eo4WB4NDmyyKGOusSeYj-0" value="" style="endArrow=none;html=1;exitX=1;exitY=0.5;exitDx=0;exitDy=0;entryX=0;entryY=0.5;entryDx=0;entryDy=0;" edge="1" parent="LEjSN3UGU4nLk3BpibLZ-1" source="LEjSN3UGU4nLk3BpibLZ-2" target="LEjSN3UGU4nLk3BpibLZ-3">
                    <mxGeometry width="50" height="50" relative="1" as="geometry">
                        <mxPoint x="280" y="239" as="sourcePoint"/>
                        <mxPoint x="480" y="239" as="targetPoint"/>
                    </mxGeometry>
                </mxCell>
                <mxCell id="Eo4WB4NDmyyKGOusSeYj-1" value="" style="endArrow=none;html=1;exitX=0.994;exitY=0.633;exitDx=0;exitDy=0;entryX=0;entryY=0.5;entryDx=0;entryDy=0;exitPerimeter=0;" edge="1" parent="LEjSN3UGU4nLk3BpibLZ-1" source="LEjSN3UGU4nLk3BpibLZ-2" target="LEjSN3UGU4nLk3BpibLZ-5">
                    <mxGeometry width="50" height="50" relative="1" as="geometry">
                        <mxPoint x="260" y="255" as="sourcePoint"/>
                        <mxPoint x="330" y="135" as="targetPoint"/>
                    </mxGeometry>
                </mxCell>
                <mxCell id="Eo4WB4NDmyyKGOusSeYj-3" value="&lt;p style=&quot;margin: 0px ; margin-top: 4px ; text-align: center ; text-decoration: underline&quot;&gt;&lt;b&gt;s2:Schüler&lt;/b&gt;&lt;/p&gt;&lt;hr&gt;&lt;p style=&quot;margin: 0px ; margin-left: 8px&quot;&gt;field1 = value1&lt;br&gt;field2 = value2&lt;br&gt;field3 = value3&lt;/p&gt;" style="verticalAlign=top;align=left;overflow=fill;fontSize=12;fontFamily=Helvetica;html=1;" vertex="1" parent="LEjSN3UGU4nLk3BpibLZ-1">
                    <mxGeometry x="600" y="230" width="160" height="90" as="geometry"/>
                </mxCell>
                <mxCell id="Eo4WB4NDmyyKGOusSeYj-4" value="&lt;p style=&quot;margin: 0px ; margin-top: 4px ; text-align: center ; text-decoration: underline&quot;&gt;&lt;b&gt;s3:Schüler&lt;/b&gt;&lt;/p&gt;&lt;hr&gt;&lt;p style=&quot;margin: 0px ; margin-left: 8px&quot;&gt;field1 = value1&lt;br&gt;field2 = value2&lt;br&gt;field3 = value3&lt;/p&gt;" style="verticalAlign=top;align=left;overflow=fill;fontSize=12;fontFamily=Helvetica;html=1;" vertex="1" parent="LEjSN3UGU4nLk3BpibLZ-1">
                    <mxGeometry x="600" y="360" width="160" height="90" as="geometry"/>
                </mxCell>
                <mxCell id="Eo4WB4NDmyyKGOusSeYj-5" value="" style="endArrow=none;html=1;exitX=1;exitY=0.5;exitDx=0;exitDy=0;entryX=0;entryY=0.5;entryDx=0;entryDy=0;" edge="1" parent="LEjSN3UGU4nLk3BpibLZ-1" source="LEjSN3UGU4nLk3BpibLZ-3" target="LEjSN3UGU4nLk3BpibLZ-4">
                    <mxGeometry width="50" height="50" relative="1" as="geometry">
                        <mxPoint x="260" y="255" as="sourcePoint"/>
                        <mxPoint x="330" y="135" as="targetPoint"/>
                    </mxGeometry>
                </mxCell>
                <mxCell id="Eo4WB4NDmyyKGOusSeYj-6" value="" style="endArrow=none;html=1;exitX=1.006;exitY=0.578;exitDx=0;exitDy=0;entryX=0;entryY=0.5;entryDx=0;entryDy=0;exitPerimeter=0;" edge="1" parent="LEjSN3UGU4nLk3BpibLZ-1" source="LEjSN3UGU4nLk3BpibLZ-3" target="Eo4WB4NDmyyKGOusSeYj-3">
                    <mxGeometry width="50" height="50" relative="1" as="geometry">
                        <mxPoint x="490" y="135" as="sourcePoint"/>
                        <mxPoint x="610" y="135" as="targetPoint"/>
                    </mxGeometry>
                </mxCell>
                <mxCell id="Eo4WB4NDmyyKGOusSeYj-7" value="" style="endArrow=none;html=1;exitX=1;exitY=0.5;exitDx=0;exitDy=0;entryX=0;entryY=0.5;entryDx=0;entryDy=0;" edge="1" parent="LEjSN3UGU4nLk3BpibLZ-1" source="LEjSN3UGU4nLk3BpibLZ-5" target="Eo4WB4NDmyyKGOusSeYj-3">
                    <mxGeometry width="50" height="50" relative="1" as="geometry">
                        <mxPoint x="490.96000000000004" y="142.01999999999998" as="sourcePoint"/>
                        <mxPoint x="610" y="285" as="targetPoint"/>
                    </mxGeometry>
                </mxCell>
                <mxCell id="Eo4WB4NDmyyKGOusSeYj-8" value="" style="endArrow=none;html=1;exitX=1.006;exitY=0.6;exitDx=0;exitDy=0;entryX=-0.012;entryY=0.344;entryDx=0;entryDy=0;exitPerimeter=0;entryPerimeter=0;" edge="1" parent="LEjSN3UGU4nLk3BpibLZ-1" source="LEjSN3UGU4nLk3BpibLZ-3" target="Eo4WB4NDmyyKGOusSeYj-4">
                    <mxGeometry width="50" height="50" relative="1" as="geometry">
                        <mxPoint x="490.96000000000004" y="142.01999999999998" as="sourcePoint"/>
                        <mxPoint x="610" y="285" as="targetPoint"/>
                    </mxGeometry>
                </mxCell>
                <mxCell id="Eo4WB4NDmyyKGOusSeYj-9" value="" style="endArrow=none;html=1;exitX=1;exitY=0.5;exitDx=0;exitDy=0;" edge="1" parent="LEjSN3UGU4nLk3BpibLZ-1" source="LEjSN3UGU4nLk3BpibLZ-5">
                    <mxGeometry width="50" height="50" relative="1" as="geometry">
                        <mxPoint x="490.96000000000004" y="144" as="sourcePoint"/>
                        <mxPoint x="600" y="404" as="targetPoint"/>
                    </mxGeometry>
                </mxCell>
            </root>
        </mxGraphModel>
    </diagram>
</mxfile>